<svg xmlns="http://www.w3.org/2000/svg" xmlns:xlink="http://www.w3.org/1999/xlink" fill="none" version="1.1" width="36" height="36" viewBox="0 0 36 36"><path d="M14.539608,0.0000016902043C18.099083,-0.00073101337,20.444981,3.7073195,18.919493,6.9230785L24.925043,6.9230785C27.219332,6.9230785,29.079216,8.7828188,29.079216,11.076924L29.079216,17.082001C32.294594,15.559488,36,17.904491,36,21.461885C36,25.019281,32.294594,27.364285,29.079216,25.841772L29.079216,31.846153C29.079216,34.140259,27.219332,36,24.925043,36L18.919493,36C20.442814,32.784813,18.097635,29.079031,14.539608,29.079031C10.981581,29.079031,8.636404,32.784813,10.159725,36L4.1541739,36C1.8598869,36,4.2258441e-7,34.140259,0,31.846153L0,25.841078C3.2153747,27.36359,6.9207797,25.018587,6.9207797,21.461195C6.9207797,17.903801,3.2153754,15.5588,0,17.081308L0,11.076924C0,8.7828188,1.8598869,6.9230785,4.1541739,6.9230785L10.159723,6.9230785C8.6342344,3.7073159,10.980134,-0.00073481631,14.539608,0.0000016902043ZM21.085201,11.137155C20.64546,10.963413,20.148144,11.179192,19.974651,11.619001L19.357758,13.183617C19.242825,13.473693,19.013653,13.702847,18.72286,13.817772L17.158815,14.433926C16.831245,14.562528,16.615807,14.87854,16.615807,15.230426C16.615807,15.582311,16.831245,15.898323,17.158815,16.026926L18.723555,16.643772C19.013653,16.758696,19.242826,16.98785,19.357758,17.278618L19.973961,18.842541C20.102571,19.170088,20.41861,19.385511,20.770525,19.385511C21.12244,19.385511,21.438478,19.170088,21.567087,18.842541L22.183983,17.277925C22.298916,16.98785,22.528086,16.758696,22.818878,16.64377L24.382925,16.027617C24.710495,15.899016,24.925936,15.583004,24.925936,15.231117C24.925936,14.87923,24.710495,14.563219,24.382925,14.434617L22.818186,13.81777C22.527973,13.70312,22.298325,13.473239,22.183981,13.182924L21.567778,11.619001C21.480637,11.398465,21.305882,11.223974,21.085201,11.137155Z" fill="#FFA100" fill-opacity="1" style="mix-blend-mode:passthrough"/></svg>