<svg xmlns="http://www.w3.org/2000/svg" xmlns:xlink="http://www.w3.org/1999/xlink" fill="none" version="1.1" width="36" height="36" viewBox="0 0 36 36"><path d="M28.070856,14.411128L34.207569,18.072206C35.317463,18.734297,36.000095,19.950741,36,21.266291L36,28.643347C36,29.958769,35.317837,31.174376,34.207569,31.837435L28.070856,35.497795C26.948374,36.1674,25.561142,36.1674,24.438662,35.497795L18.301947,31.83672C17.192057,31.174633,16.509422,29.958185,16.50952,28.642632L16.50952,21.266291C16.50952,19.950869,17.191685,18.735264,18.301949,18.072205L24.438663,14.411839C25.561146,13.742238,26.948374,13.742238,28.070856,14.411839L28.070856,14.411128ZM35.379784,15.436373L35.380482,16.138645L31.832516,14.021136C31.196287,7.4397488,26.112057,3.4086423,19.641216,3.5697718C12.683115,3.7430222,7.4179001,8.6710405,7.2995658,16.562145L7.2981734,16.832359L7.2981734,17.491852L6.8791275,17.992353L6.5798092,18.354542L6.2630887,18.750237L5.9261813,19.179443L5.5711765,19.641447L5.1966801,20.136957L4.8040862,20.665977L4.3154316,21.333313L8.9339809,21.978548L8.9339809,30.301702C8.933815,31.240561,9.6447124,32.018589,10.559347,32.080551L10.674202,32.084118L14.302912,32.084118L20.277441,35.648945L10.674208,35.648945C7.8567801,35.648926,5.5476108,33.359177,5.4563274,30.474955L5.4535432,30.301702L5.452847,25.089926L2.1067491,24.622934C0.82516283,24.443659,-0.096245639,23.269844,0.0080419788,21.949312L0.021963738,21.813135C0.076307096,21.40616,0.22789824,21.019218,0.46328402,20.686649L0.93662423,20.019312L1.3932585,19.384773L1.8310982,18.783743L2.2508395,18.214796L2.6517868,17.679358L3.0353315,17.176006L3.4007781,16.70545L3.8274801,16.169298L3.8358333,15.936159C4.2284274,6.4772458,10.830828,0.34716728,19.291088,0.01421218L19.556299,0.0056566C28.331886,-0.21251078,35.380482,5.8968916,35.380482,15.436373L35.379784,15.436373ZM26.094658,21.224228C24.253504,21.224228,22.760393,22.766371,22.760393,24.668566C22.760393,26.571468,24.253504,28.113613,26.094658,28.113613C27.935812,28.113613,29.428923,26.571468,29.428923,24.668566C29.428923,22.766371,27.935812,21.224228,26.094658,21.224228Z" fill="#FF3700" fill-opacity="0.7300000190734863" style="mix-blend-mode:passthrough"/></svg>