<svg xmlns="http://www.w3.org/2000/svg" xmlns:xlink="http://www.w3.org/1999/xlink" fill="none" version="1.1" width="36" height="36" viewBox="0 0 36 36"><path d="M18,0C8.0545702,0,0,8.0545702,0,18C0,27.945429,8.0545702,36,18,36C27.945429,36,36,27.945429,36,18C36,8.0545702,27.945429,0,18,0ZM19.547066,30.376534C19.547066,30.376534,19.497953,30.572987,19.448839,30.69577L19.3015,30.99045C19.252388,31.088676,19.178717,31.162346,19.105047,31.236015C19.031378,31.309687,18.957708,31.383356,18.859482,31.432468C18.761255,31.481583,18.687586,31.530695,18.564802,31.579809C18.466576,31.628922,18.368349,31.653479,18.245565,31.678036C18.147339,31.678036,18.024557,31.702591,17.926331,31.702591C16.060026,31.702591,14.29195,31.334242,12.572988,30.622101C10.927694,29.934515,9.4788542,28.952251,8.20191,27.675306C7.9072304,27.380627,7.7107778,26.963165,7.7107778,26.521145C7.7107778,26.079126,7.8826737,25.661665,8.20191,25.366985C8.4965897,25.072306,8.914052,24.875853,9.3560705,24.875853C9.79809,24.875853,10.215552,25.047749,10.510232,25.366985C12.475605,27.338821,15.142315,28.451422,17.926331,28.461119C18.14584,28.451365,18.364565,28.493427,18.564802,28.5839L18.859482,28.731241C18.957708,28.780354,19.031378,28.854025,19.105047,28.927694C19.178717,29.001364,19.252388,29.075033,19.3015,29.17326C19.350615,29.271486,19.399727,29.345156,19.448839,29.467939C19.497953,29.566166,19.522511,29.664392,19.547066,29.787176C19.547066,29.885403,19.571623,30.008184,19.571623,30.106411C19.571623,30.204638,19.571623,30.327421,19.547066,30.425648L19.547066,30.376534ZM27.50341,27.527967C26.251022,28.780354,24.188267,28.780354,22.935879,27.527967L17.238745,21.830832C16.821281,21.41337,16.231924,21.167803,15.642565,21.290586C10.287148,22.385429,5.7313328,17.314373,7.3915415,12.106412C7.5634379,11.517053,8.3246927,11.320601,8.7667122,11.762619L10.215552,13.211459C10.854025,13.849932,11.885403,13.849932,12.523874,13.211459L13.211459,12.523874C13.849932,11.885403,13.849932,10.854025,13.211459,10.215552L11.762619,8.7667122C11.345157,8.3246927,11.517053,7.5634379,12.106412,7.3915415C14.58663,6.6057296,17.386084,7.1950884,19.350615,9.1596174C21.11869,10.927694,21.781719,13.407912,21.315144,15.667121C21.19236,16.231924,21.437925,16.845839,21.855389,17.263302L27.527967,22.935879C28.780354,24.188267,28.780354,26.251022,27.527967,27.50341L27.50341,27.527967ZM31.21146,19.08049C30.91678,19.37517,30.499317,19.571623,30.057299,19.571623C29.959072,19.571623,29.836288,19.571623,29.738062,19.547066C29.639835,19.547066,29.541609,19.497953,29.418827,19.448839L29.124147,19.3015C29.025921,19.252388,28.952251,19.178717,28.87858,19.105047C28.804911,19.031378,28.731241,18.957708,28.682127,18.859482C28.633015,18.761255,28.5839,18.687586,28.534788,18.564802C28.487513,18.463415,28.454458,18.355991,28.436562,18.245565C28.436562,18.147339,28.412004,18.024557,28.412004,17.926331C28.412004,16.502047,28.141882,15.151432,27.57708,13.849932C27.036835,12.597544,26.300137,11.492496,25.317871,10.510232C25.023191,10.215552,24.826738,9.79809,24.826738,9.3560705C24.826738,8.914052,24.998636,8.4965897,25.317871,8.20191C25.612551,7.9072304,26.030014,7.7107778,26.472033,7.7107778C26.914051,7.7107778,27.331514,7.8826737,27.626194,8.20191C30.20829,10.778912,31.657528,14.278298,31.653479,17.926331C31.653479,18.368349,31.481583,18.785812,31.162346,19.08049L31.21146,19.08049Z" fill="#006FFF" fill-opacity="1" style="mix-blend-mode:passthrough"/></svg>