<svg xmlns="http://www.w3.org/2000/svg" xmlns:xlink="http://www.w3.org/1999/xlink" fill="none" version="1.1" width="36" height="36" viewBox="0 0 36 36"><path d="M12.309249399999999,30.28167L23.69075,30.28167C22.615858,32.865501,20.571368,34.919899,17.999999000000003,36.000004C15.428627,34.919899,13.3841381,32.865501,12.309249399999999,30.28167ZM27.749998,21.798885L30.999998,25.502243L30.999998,28.648798L5,28.648798L5,25.502243L8.2499998,21.798885L8.2499998,12.320044C8.2499998,6.6327391,12.3190002,1.7928972,17.999999000000003,0C23.681,1.792897,27.749998,6.6327391,27.749998,12.320044L27.749998,21.798885ZM17.999999000000003,15.585793C19.794924,15.585793,21.249996,14.123667,21.249996,12.320044C21.249996,10.516419,19.794924,9.0542936,17.999999000000003,9.0542927C16.205073,9.0542936,14.7499981,10.516419,14.7499981,12.320044C14.7499981,14.123667,16.205073,15.585793,17.999999000000003,15.585793Z" fill="#00B899" fill-opacity="1" style="mix-blend-mode:passthrough"/></svg>