<svg xmlns="http://www.w3.org/2000/svg" xmlns:xlink="http://www.w3.org/1999/xlink" fill="none" version="1.1" width="18.181819915771484" height="20" viewBox="0 0 18.181819915771484 20"><defs><clipPath id="master_svg0_45_4076"><rect x="0" y="0" width="18.181819915771484" height="20" rx="0"/></clipPath></defs><g clip-path="url(#master_svg0_45_4076)"><g transform="matrix(1,0,0,-1,0,38.4375)"><path d="M0,34.296876L7.4675331,35.3125L0,34.296876L7.4675331,35.3125L7.4675331,28.359375L0,28.359375L0,34.296876ZM0,21.6406252L7.4675331,20.6250001L0,21.6406252L7.4675331,20.6250001L7.4675331,27.5L0,27.5L0,21.6406252ZM8.2792215,20.546875L18.18182,19.21875L8.2792215,20.546875L18.18182,19.21875L18.18182,27.5L8.2792215,27.5L8.2792215,20.546875ZM8.2792215,35.390625L8.2792215,28.359375L8.2792215,35.390625L8.2792215,28.359375L18.18182,28.359375L18.18182,36.71875L8.2792215,35.390625Z" fill="#006FFF" fill-opacity="1" style="mix-blend-mode:passthrough"/></g></g></svg>